<?xml version="1.0" encoding="UTF-8"?>
<svg enable-background="new 0 0 1077.165 1133.858" viewBox="0 0 1077.165 1133.858" xmlns="http://www.w3.org/2000/svg">
 <path d="m0 0h1077.2v1133.9h-1077.2z"/>
 <path d="m249.96 153.15v64.137h64.137v-64.137h-64.137zm577.24 0h-64.125v64.137h64.125v-64.137zm-513.11 64.138v64.149h64.137v-64.149h-64.137zm448.98 0h-64.149v64.149h64.148v-64.149zm64.125 256.57v-64.143h-64.125v-64.143h-64.149v-64.137h-64.137v64.137h-192.42v-64.137h-64.136v64.137h-64.137v64.143h-64.138v64.143h-64.149v256.58h64.149v-192.45h64.137v128.3h64.137v-64.148h320.7v64.147h64.148v-128.3h64.125v192.45h64.15v-256.58h-64.149zm-320.68 0h-128.29v-64.143h128.29v64.143zm192.41 0h-128.26v-64.143h128.26v64.143zm-192.41 256.58v-64.15h-128.29v64.15h128.29zm64.148 0h128.26v-64.15h-128.26v64.15z" fill="#fcee23"/>
 <path d="m142.23 915.52v15.412h15.413v-15.412h-15.413zm138.71 0h-15.409v15.412h15.409v-15.412zm-123.3 15.412v15.416h15.412v-15.416h-15.412zm107.89 0h-15.415v15.416h15.415v-15.416zm15.409 61.655v-15.414h-15.409v-15.413h-15.415v-15.412h-15.412v15.412h-46.24v-15.412h-15.412v15.412h-15.412v15.413h-15.413v15.414h-15.415v61.658h15.415v-46.246h15.413v30.83h15.412v-15.415h77.064v15.415h15.415v-30.83h15.409v46.246h15.416v-61.658h-15.416zm-77.061 0h-30.827v-15.414h30.827v15.414zm46.237 0h-30.822v-15.414h30.822v15.414zm-46.237 61.658v-15.416h-30.827v15.416h30.827zm15.415 0h30.822v-15.416h-30.822v15.416z" fill="#e76f34"/>
 <path d="m360.23 915.52v15.412h15.413v-15.412h-15.413zm138.71 0h-15.409v15.412h15.409v-15.412zm-123.3 15.412v15.416h15.412v-15.416h-15.412zm107.89 0h-15.415v15.416h15.415v-15.416zm15.409 61.655v-15.414h-15.409v-15.413h-15.415v-15.412h-15.412v15.412h-46.24v-15.412h-15.412v15.412h-15.412v15.413h-15.413v15.414h-15.415v61.658h15.415v-46.246h15.413v30.83h15.412v-15.415h77.064v15.415h15.415v-30.83h15.409v46.246h15.416v-61.658h-15.416zm-77.061 0h-30.827v-15.414h30.827v15.414zm46.237 0h-30.822v-15.414h30.822v15.414zm-46.237 61.658v-15.416h-30.827v15.416h30.827zm15.415 0h30.822v-15.416h-30.822v15.416z" fill="#fdbb63"/>
 <path d="m578.22 915.52v15.412h15.414v-15.412h-15.414zm138.71 0h-15.408v15.412h15.408v-15.412zm-123.3 15.412v15.416h15.412v-15.416h-15.412zm107.89 0h-15.416v15.416h15.416v-15.416zm15.408 61.655v-15.414h-15.408v-15.413h-15.416v-15.412h-15.412v15.412h-46.238v-15.412h-15.412v15.412h-15.412v15.413h-15.414v15.414h-15.414v61.658h15.414v-46.246h15.414v30.83h15.412v-15.415h77.062v15.415h15.416v-30.83h15.408v46.246h15.416v-61.658h-15.416zm-77.061 0h-30.826v-15.414h30.826v15.414zm46.237 0h-30.82v-15.414h30.82v15.414zm-46.237 61.658v-15.416h-30.826v15.416h30.826zm15.416 0h30.82v-15.416h-30.82v15.416z" fill="#fff"/>
 <path d="m796.22 915.52v15.412h15.414v-15.412h-15.414zm138.71 0h-15.408v15.412h15.408v-15.412zm-123.3 15.412v15.416h15.412v-15.416h-15.412zm107.89 0h-15.416v15.416h15.416v-15.416zm15.408 61.655v-15.414h-15.408v-15.413h-15.416v-15.412h-15.412v15.412h-46.238v-15.412h-15.412v15.412h-15.412v15.413h-15.414v15.414h-15.414v61.658h15.414v-46.246h15.414v30.83h15.412v-15.415h77.062v15.415h15.416v-30.83h15.408v46.246h15.416v-61.658h-15.416zm-77.061 0h-30.826v-15.414h30.826v15.414zm46.237 0h-30.82v-15.414h30.82v15.414zm-46.237 61.658v-15.416h-30.826v15.416h30.826zm15.416 0h30.82v-15.416h-30.82v15.416z" fill="#ec008c"/>
</svg>
